<svg width="192" height="192" viewBox="0 0 192 192" fill="none" xmlns="http://www.w3.org/2000/svg">
<circle cx="96" cy="96" r="96" fill="#171717"/>
<g clip-path="url(#clip0_10770_17102)">
<path d="M108 78H84C82.4087 78 80.8826 78.6321 79.7574 79.7574C78.6321 80.8826 78 82.4087 78 84V108C78 109.591 78.6321 111.117 79.7574 112.243C80.8826 113.368 82.4087 114 84 114H108C109.591 114 111.117 113.368 112.243 112.243C113.368 111.117 114 109.591 114 108V84C114 82.4087 113.368 80.8826 112.243 79.7574C111.117 78.6321 109.591 78 108 78ZM84 82H108C108.53 82 109.039 82.2107 109.414 82.5858C109.789 82.9609 110 83.4696 110 84V100.72L103.6 95.26C102.608 94.4441 101.364 93.998 100.08 93.998C98.7959 93.998 97.5516 94.4441 96.56 95.26L82 107.4V84C82 83.4696 82.2107 82.9609 82.5858 82.5858C82.9609 82.2107 83.4696 82 84 82V82ZM108 110H85.12L99.12 98.32C99.3889 98.1203 99.715 98.0125 100.05 98.0125C100.385 98.0125 100.711 98.1203 100.98 98.32L110 106V108C110 108.53 109.789 109.039 109.414 109.414C109.039 109.789 108.53 110 108 110Z" fill="white"/>
<path d="M88 92C89.6569 92 91 90.6569 91 89C91 87.3431 89.6569 86 88 86C86.3431 86 85 87.3431 85 89C85 90.6569 86.3431 92 88 92Z" fill="white"/>
</g>
<defs>
<clipPath id="clip0_10770_17102">
<rect width="48" height="48" fill="white" transform="translate(72 72)"/>
</clipPath>
</defs>
</svg>
