<svg xmlns="http://www.w3.org/2000/svg" xmlns:xlink="http://www.w3.org/1999/xlink" viewBox="0,0,256,256" width="50px" height="50px"><g fill="#ffffff" fill-rule="nonzero" stroke="none" stroke-width="1" stroke-linecap="butt" stroke-linejoin="miter" stroke-miterlimit="10" stroke-dasharray="" stroke-dashoffset="0" font-family="none" font-weight="none" font-size="none" text-anchor="none" style="mix-blend-mode: normal"><g transform="scale(5.12,5.12)"><path d="M25,1.91992c-12.73489,0 -23.08008,10.34519 -23.08008,23.08008c0,12.73489 10.34519,23.08008 23.08008,23.08008c12.73489,0 23.08008,-10.34519 23.08008,-23.08008c0,-12.73489 -10.34519,-23.08008 -23.08008,-23.08008zM25,3.91992c11.65401,0 21.08008,9.42607 21.08008,21.08008c0,11.65401 -9.42607,21.08008 -21.08008,21.08008c-11.65401,0 -21.08008,-9.42607 -21.08008,-21.08008c0,-0.36419 0.00915,-0.72632 0.02734,-1.08594c0.56391,-11.14811 9.76292,-19.99414 21.05273,-19.99414zM25,6c-10.477,0 -19,8.523 -19,19c0,10.477 8.523,19 19,19c10.477,0 19,-8.523 19,-19c0,-10.477 -8.523,-19 -19,-19zM25,9c0.553,0 1,0.447 1,1v1c0,0.553 -0.447,1 -1,1c-0.553,0 -1,-0.447 -1,-1v-1c0,-0.553 0.447,-1 1,-1zM30.73633,10.14258c0.12986,-0.00103 0.26167,0.02367 0.38867,0.07617c0.51,0.211 0.75202,0.79564 0.54102,1.30664l-0.38281,0.92383c-0.159,0.385 -0.53083,0.61719 -0.92383,0.61719c-0.128,0 -0.25781,-0.02417 -0.38281,-0.07617c-0.51,-0.212 -0.75202,-0.79664 -0.54102,-1.30664l0.38281,-0.92383c0.15825,-0.3825 0.52839,-0.61409 0.91797,-0.61719zM19.25391,10.14648c0.38949,0.00211 0.75897,0.23469 0.91797,0.61719l0.38477,0.92188c0.213,0.51 -0.02906,1.09464 -0.53906,1.30664c-0.125,0.053 -0.25677,0.07812 -0.38477,0.07812c-0.392,0 -0.76287,-0.23219 -0.92187,-0.61719l-0.38477,-0.92187c-0.213,-0.51 0.02906,-1.09464 0.53906,-1.30664c0.12725,-0.05325 0.25884,-0.07883 0.38867,-0.07812zM37,13l-9,15l-15,9l9,-15zM14.38281,13.40234c0.256,0 0.51349,0.09652 0.70899,0.29101l0.70703,0.70703c0.391,0.391 0.39195,1.02401 0.00195,1.41601c-0.195,0.195 -0.45298,0.29297 -0.70898,0.29297c-0.256,0 -0.51203,-0.09897 -0.70703,-0.29297l-0.70703,-0.70703c-0.391,-0.39 -0.39195,-1.02206 -0.00195,-1.41406c0.1955,-0.1955 0.45103,-0.29297 0.70703,-0.29297zM38.8457,18.21875c0.38981,0.00155 0.76017,0.23273 0.91992,0.61523c0.213,0.51 -0.02711,1.09559 -0.53711,1.30859l-0.92383,0.38672c-0.126,0.053 -0.25577,0.07617 -0.38477,0.07617c-0.391,0 -0.76383,-0.22928 -0.92383,-0.61328c-0.213,-0.511 0.02711,-1.09559 0.53711,-1.30859l0.92188,-0.38672c0.12725,-0.05325 0.26069,-0.07864 0.39063,-0.07812zM11.13672,18.26172c0.12981,-0.00095 0.26192,0.02367 0.38867,0.07617l0.92383,0.38281c0.51,0.211 0.75202,0.79664 0.54101,1.30664c-0.159,0.385 -0.53183,0.61719 -0.92383,0.61719c-0.128,0 -0.25781,-0.02417 -0.38281,-0.07617l-0.92383,-0.38281c-0.51,-0.211 -0.75202,-0.79664 -0.54102,-1.30664c0.15825,-0.38325 0.52853,-0.61433 0.91797,-0.61719zM25,23c-1.02749,-0.00009 -1.88789,0.7784 -1.99023,1.80078c-0.00657,0.0662 -0.00983,0.13269 -0.00977,0.19922c0,1.10457 0.89543,2 2,2c1.10457,0 2,-0.89543 2,-2c0,-1.10457 -0.89543,-2 -2,-2zM10,24h1c0.553,0 1,0.447 1,1c0,0.553 -0.447,1 -1,1h-1c-0.553,0 -1,-0.447 -1,-1c0,-0.553 0.447,-1 1,-1zM39,24h1c0.553,0 1,0.447 1,1c0,0.553 -0.447,1 -1,1h-1c-0.553,0 -1,-0.447 -1,-1c0,-0.553 0.447,-1 1,-1zM37.92773,29.35547c0.12991,-0.00095 0.26142,0.02367 0.38867,0.07617l0.92383,0.38281c0.51,0.211 0.75202,0.79664 0.54102,1.30664c-0.159,0.385 -0.53183,0.61719 -0.92383,0.61719c-0.128,0 -0.25781,-0.02417 -0.38281,-0.07617l-0.92383,-0.38281c-0.51,-0.211 -0.75202,-0.79664 -0.54102,-1.30664c0.15825,-0.38325 0.52825,-0.61433 0.91797,-0.61719zM12.08398,29.39453c0.38967,0.00169 0.76017,0.23078 0.91992,0.61328c0.213,0.51 -0.02711,1.09559 -0.53711,1.30859l-0.92187,0.38672c-0.126,0.053 -0.25772,0.07617 -0.38672,0.07617c-0.391,0 -0.76383,-0.22928 -0.92383,-0.61328c-0.213,-0.51 0.02711,-1.09559 0.53711,-1.30859l0.92383,-0.38672c0.127,-0.053 0.25878,-0.07673 0.38867,-0.07617zM34.9082,33.89063c0.256,0 0.51153,0.09847 0.70703,0.29297l0.70703,0.70703c0.391,0.39 0.39195,1.02206 0.00195,1.41406c-0.195,0.195 -0.45298,0.29297 -0.70898,0.29297c-0.256,0 -0.51203,-0.09701 -0.70703,-0.29102l-0.70703,-0.70703c-0.391,-0.391 -0.39195,-1.02401 -0.00195,-1.41602c0.1955,-0.1955 0.45298,-0.29297 0.70898,-0.29297zM30.37305,36.92969c0.38972,0.00211 0.75777,0.23469 0.91602,0.61719l0.38477,0.92188c0.213,0.51 -0.02906,1.09464 -0.53906,1.30664c-0.125,0.053 -0.25481,0.07813 -0.38281,0.07813c-0.392,0 -0.76483,-0.23219 -0.92383,-0.61719l-0.38477,-0.92187c-0.213,-0.51 0.02906,-1.09464 0.53906,-1.30664c0.12725,-0.05325 0.26072,-0.07883 0.39063,-0.07812zM19.63477,36.93359c0.12986,-0.00103 0.26167,0.02367 0.38867,0.07617c0.51,0.212 0.75202,0.79664 0.54102,1.30664l-0.38281,0.92383c-0.159,0.385 -0.53083,0.61719 -0.92383,0.61719c-0.128,0 -0.25781,-0.02417 -0.38281,-0.07617c-0.51,-0.211 -0.75202,-0.79564 -0.54102,-1.30664l0.38281,-0.92383c0.15825,-0.3825 0.52839,-0.61409 0.91797,-0.61719zM25,38c0.553,0 1,0.447 1,1v1c0,0.553 -0.447,1 -1,1c-0.553,0 -1,-0.447 -1,-1v-1c0,-0.553 0.447,-1 1,-1z"></path></g></g></svg>