<svg width="24" height="24" viewBox="0 0 24 24" fill="none" xmlns="http://www.w3.org/2000/svg">
<g clip-path="url(#clip0_309_5949)">
<path d="M6.09032 21.06C5.82511 21.06 5.57075 20.9546 5.38322 20.7671C5.19568 20.5796 5.09032 20.3252 5.09032 20.06L4.94032 5.4C4.92828 5.10234 4.97521 4.80525 5.0784 4.52579C5.18159 4.24633 5.33901 3.99004 5.54161 3.77164C5.74421 3.55324 5.98799 3.37705 6.25892 3.25321C6.52986 3.12936 6.8226 3.0603 7.12032 3.05L16.7103 3C17.0084 3.00521 17.3026 3.06909 17.576 3.18801C17.8494 3.30692 18.0968 3.47854 18.3038 3.69305C18.5109 3.90756 18.6737 4.16077 18.7829 4.43821C18.8921 4.71565 18.9456 5.01189 18.9403 5.31L19.0803 19.97C19.082 20.1452 19.0377 20.3178 18.9517 20.4705C18.8657 20.6232 18.7411 20.7506 18.5903 20.84C18.4383 20.9278 18.2659 20.974 18.0903 20.974C17.9148 20.974 17.7423 20.9278 17.5903 20.84L11.8903 17.68L6.60032 20.91C6.44368 20.9975 6.2694 21.0488 6.09032 21.06ZM11.8503 15.51C12.0241 15.5103 12.1953 15.5514 12.3503 15.63L17.0603 18.24L16.9403 5.29C16.9403 5.09 16.8103 4.95 16.7303 4.96L7.13032 5.05C7.05032 5.05 6.94032 5.18 6.94032 5.38L7.06032 18.28L11.3403 15.65C11.4958 15.561 11.6712 15.5128 11.8503 15.51Z" fill="white"/>
</g>
<defs>
<clipPath id="clip0_309_5949">
<rect width="24" height="24" fill="white"/>
</clipPath>
</defs>
</svg>
