<svg id="Layer_1" viewBox="0 0 512 512" xmlns="http://www.w3.org/2000/svg">
    <path d="m41.087 308.882c6.919 6.918 16.14 10.729 25.963 10.729s19.044-3.81 25.964-10.729l162.987-162.986 162.984 162.984c6.919 6.919 16.14 10.73 25.964 10.73s19.045-3.811 25.963-10.729l24.337-24.335c14.314-14.316 14.314-37.61-.001-51.926l-227.934-227.933c-3-3-7.07-4.687-11.313-4.687s-8.313 1.686-11.313 4.687l-227.933 227.932c-6.92 6.919-10.731 16.14-10.731 25.964s3.812 19.045 10.729 25.963zm-1.706-53.635 216.62-216.62 216.619 216.62c1.809 1.809 1.809 4.865.001 6.673l-24.337 24.335c-1.18 1.18-2.596 1.356-3.335 1.356s-2.155-.176-3.336-1.357l-174.299-174.299c-3.124-3.125-7.218-4.687-11.313-4.687-4.094 0-8.189 1.563-11.313 4.687l-174.3 174.298c-1.182 1.182-2.599 1.358-3.338 1.358s-2.156-.176-3.336-1.356l-24.334-24.336c-1.181-1.18-1.356-2.597-1.356-3.335s.175-2.156 1.357-3.337zm227.933-58.171c-3-3-7.07-4.687-11.313-4.687s-8.313 1.686-11.313 4.687l-227.933 227.932c-6.92 6.918-10.731 16.14-10.731 25.964s3.812 19.046 10.729 25.962l24.334 24.336c6.919 6.92 16.14 10.73 25.963 10.73s19.044-3.81 25.964-10.729l162.987-162.986 162.984 162.985c6.919 6.919 16.14 10.73 25.964 10.73s19.045-3.811 25.963-10.729l24.336-24.335c6.919-6.918 10.729-16.139 10.729-25.963s-3.81-19.044-10.729-25.963zm205.307 257.232-24.337 24.336c-1.18 1.18-2.596 1.356-3.335 1.356s-2.155-.176-3.336-1.357l-174.299-174.3c-3-3-7.07-4.687-11.313-4.687s-8.313 1.686-11.313 4.687l-174.3 174.299c-1.182 1.182-2.599 1.358-3.338 1.358s-2.156-.176-3.336-1.356l-24.334-24.337c-1.181-1.18-1.356-2.596-1.356-3.334s.176-2.155 1.357-3.336l216.62-216.62 216.62 216.62c1.808 1.808 1.808 4.863 0 6.671z"
          fill="white"></path>
</svg>