<svg width="16" height="16" viewBox="0 0 16 16" fill="none" xmlns="http://www.w3.org/2000/svg">
<g clip-path="url(#clip0_310_5342)">
<path d="M7.99959 14C7.91185 14.0005 7.82488 13.9837 7.74365 13.9505C7.66243 13.9173 7.58855 13.8685 7.52626 13.8067L2.34626 8.62001C1.6965 7.96346 1.33203 7.07706 1.33203 6.15334C1.33203 5.22963 1.6965 4.34323 2.34626 3.68668C3.0011 3.03369 3.88814 2.66699 4.81292 2.66699C5.7377 2.66699 6.62475 3.03369 7.27959 3.68668L7.99959 4.40668L8.71959 3.68668C9.37443 3.03369 10.2615 2.66699 11.1863 2.66699C12.111 2.66699 12.9981 3.03369 13.6529 3.68668C14.3027 4.34323 14.6671 5.22963 14.6671 6.15334C14.6671 7.07706 14.3027 7.96346 13.6529 8.62001L8.47292 13.8067C8.41063 13.8685 8.33675 13.9173 8.25553 13.9505C8.1743 13.9837 8.08733 14.0005 7.99959 14Z" fill="#CC1439"/>
</g>
<defs>
<clipPath id="clip0_310_5342">
<rect width="16" height="16" fill="white"/>
</clipPath>
</defs>
</svg>
